<svg width="26" height="25" viewBox="0 0 26 25" fill="none" xmlns="http://www.w3.org/2000/svg">
<path fill-rule="evenodd" clip-rule="evenodd" d="M9.66517 21.1293L24.308 6.4854C25.3098 5.55174 25.7223 4.1456 25.3834 2.81862C25.0445 1.49164 24.0084 0.455454 22.6816 0.116566C21.3547 -0.222321 19.9487 0.190134 19.0152 1.19213L4.33484 15.8735C4.24095 15.9701 4.16111 16.0793 4.09765 16.198L0.627334 23.2016C0.437563 23.5889 0.461161 24.0469 0.689748 24.4127C0.918336 24.7784 1.31952 25.0003 1.75082 24.9994C1.95679 24.9945 2.15834 24.9388 2.33753 24.837L9.34061 21.3665C9.45939 21.3031 9.56864 21.2232 9.66517 21.1293ZM24.2211 25C24.9106 25 25.4694 24.441 25.4694 23.7514C25.4694 23.0621 24.9106 22.503 24.2211 22.503H12.9862C12.2968 22.503 11.7379 23.0621 11.7379 23.7514C11.7379 24.441 12.2968 25 12.9862 25H24.2211ZM18.3759 8.88289L16.6158 7.12262L6.27969 17.5094L4.54453 21.0049L7.98989 19.2197L18.3759 8.88289ZM21.68 2.5268C22.022 2.5268 22.3492 2.66726 22.585 2.91536C22.8283 3.15616 22.962 3.48627 22.9548 3.8285C22.9478 4.17074 22.8005 4.49504 22.5475 4.72557L20.1383 7.12251L18.3781 5.36226L20.7748 2.91536C21.0106 2.66726 21.3378 2.5268 21.68 2.5268Z" fill="#231F20"/>
</svg>
