<svg width="49" height="48" viewBox="0 0 49 48" fill="none" xmlns="http://www.w3.org/2000/svg">
<g filter="url(#filter0_d_2_443)">
<path d="M21.9988 0.103662C18.5283 0.533601 15.3393 1.82342 12.4629 3.95747C11.2904 4.83299 9.33635 6.78725 8.46092 7.95981C6.30362 10.8678 5.02956 14.0493 4.59966 17.5748C4.46678 18.7317 4.46678 21.2645 4.59966 22.4214C5.02956 25.9469 6.30362 29.1284 8.46092 32.0364C9.33635 33.2089 11.2904 35.1632 12.4629 36.0387C15.3705 38.1962 18.5518 39.4704 22.0769 39.9003C23.2338 40.0332 25.7662 40.0332 26.9231 39.9003C30.4482 39.4704 33.6295 38.1962 36.5371 36.0387C37.7096 35.1632 39.6637 33.2089 40.5391 32.0364C42.6964 29.1284 43.9704 25.9469 44.4003 22.4214C44.5332 21.2645 44.5332 18.7317 44.4003 17.5748C43.9704 14.0493 42.6964 10.8678 40.5391 7.95981C39.6637 6.78725 37.7096 4.83299 36.5371 3.95747C33.6295 1.79997 30.4482 0.525784 26.9231 0.0958452C25.8053 -0.0370449 23.1087 -0.0292278 21.9988 0.103662ZM26.9778 2.55822C32.7618 3.41028 37.7174 7.01395 40.289 12.2201C41.5161 14.7138 42.0867 17.1683 42.0867 19.9981C42.0789 23.547 41.1722 26.6191 39.2259 29.6131C38.7648 30.3322 38.0066 31.325 37.905 31.3563C37.8737 31.3641 37.733 31.0045 37.5845 30.5511C36.459 27.096 33.8639 24.102 30.5889 22.4995C30.1746 22.2963 29.7135 22.0931 29.5728 22.0383L29.307 21.9445L29.5415 21.7804C30.0261 21.4364 31.2142 20.1701 31.5738 19.6072C32.5664 18.0595 33.0042 16.4022 32.9182 14.5574C32.754 10.8599 30.2372 7.76438 26.587 6.77162C26.032 6.61528 25.7584 6.59964 24.5 6.59964C22.8742 6.59964 22.3427 6.69345 21.1234 7.22501C16.3554 9.30435 14.5967 15.1906 17.4184 19.5916C17.7702 20.1466 18.8801 21.3426 19.4194 21.7413L19.693 21.9445L19.2631 22.1165C15.6128 23.6018 12.7052 26.7129 11.4468 30.4495C11.2826 30.9342 11.1263 31.3406 11.095 31.3406C10.9231 31.3406 9.58647 29.4255 8.96898 28.2842C6.94455 24.5476 6.36615 19.8652 7.41353 15.7222C9.15657 8.82751 14.8937 3.63697 21.9519 2.56604C23.3041 2.36279 25.6099 2.36279 26.9778 2.55822ZM25.946 9.13237C28.6426 9.82027 30.5186 12.2279 30.5186 14.9952C30.5186 16.6133 29.9402 17.9813 28.7599 19.1851C26.3681 21.6162 22.6319 21.6162 20.2401 19.1851C19.0598 17.9813 18.4814 16.6133 18.4814 14.9952C18.4814 12.2436 20.3495 9.83591 23.0227 9.13237C23.8278 8.92131 25.1253 8.92131 25.946 9.13237ZM26.5713 23.7034C30.5342 24.4225 33.9577 27.4087 35.2396 31.2625C35.5054 32.052 35.7633 33.1386 35.7555 33.42C35.7477 33.5763 34.8332 34.2799 33.8405 34.9052C30.9406 36.7188 27.9157 37.5865 24.5 37.5865C20.584 37.5865 17.1292 36.4296 13.8854 34.0375L13.2445 33.5607L13.2836 33.1698C13.393 32.2318 13.8151 30.9029 14.3466 29.8398C15.4096 27.7057 17.4184 25.7045 19.521 24.6883C21.2953 23.8363 22.8273 23.5001 24.7345 23.5549C25.3598 23.5705 26.1883 23.633 26.5713 23.7034Z" fill="black"/>
</g>
<defs>
<filter id="filter0_d_2_443" x="0.5" y="0" width="48" height="48" filterUnits="userSpaceOnUse" color-interpolation-filters="sRGB">
<feFlood flood-opacity="0" result="BackgroundImageFix"/>
<feColorMatrix in="SourceAlpha" type="matrix" values="0 0 0 0 0 0 0 0 0 0 0 0 0 0 0 0 0 0 127 0" result="hardAlpha"/>
<feOffset dy="4"/>
<feGaussianBlur stdDeviation="2"/>
<feComposite in2="hardAlpha" operator="out"/>
<feColorMatrix type="matrix" values="0 0 0 0 0 0 0 0 0 0 0 0 0 0 0 0 0 0 0.15 0"/>
<feBlend mode="normal" in2="BackgroundImageFix" result="effect1_dropShadow_2_443"/>
<feBlend mode="normal" in="SourceGraphic" in2="effect1_dropShadow_2_443" result="shape"/>
</filter>
</defs>
</svg>
