<svg width="48" height="48" viewBox="0 0 48 48" fill="none" xmlns="http://www.w3.org/2000/svg">
<g filter="url(#filter0_d_2_313)">
<path d="M11.1047 0.0914383C7.5767 0.733093 4.71359 3.62836 4.10342 7.15746C4.00173 7.75999 3.98608 9.44238 4.00955 20.327C4.03302 34.3182 3.97826 33.0662 4.6119 34.6156C5.50368 36.7988 7.22468 38.5203 9.41504 39.4123C10.9639 40.0462 9.82182 39.9992 24.0122 39.9992C38.2026 39.9992 37.0605 40.0462 38.6094 39.4123C40.7997 38.5203 42.5207 36.7988 43.4125 34.6078C44.0462 33.0584 43.9992 34.2009 43.9992 20.0062C43.9992 5.81156 44.0462 6.95401 43.4125 5.40465C42.5207 3.21364 40.7997 1.49213 38.6172 0.600067C37.0605 -0.0337601 38.3278 0.0210152 24.2469 0.00536346C13.9287 -0.0102844 11.5897 0.00536346 11.1047 0.0914383ZM36.6459 2.66588C38.5077 3.14321 40.08 4.42652 40.878 6.11673C41.5429 7.52524 41.496 6.53146 41.496 20.0062C41.496 33.4809 41.5429 32.4872 40.878 33.8957C40.2521 35.2181 39.2195 36.251 37.8975 36.877C36.4894 37.5422 37.4829 37.4952 24.0122 37.4952C10.5415 37.4952 11.535 37.5422 10.1269 36.877C8.39809 36.0632 7.10734 34.4513 6.66927 32.5654C6.53628 31.9707 6.52846 31.3212 6.52846 20.0062C6.52846 6.53146 6.48152 7.52524 7.14645 6.11673C7.77227 4.7943 8.81269 3.75357 10.1269 3.14321C10.9248 2.76761 11.3629 2.64241 12.1999 2.55633C12.5207 2.52503 18.0278 2.50156 24.4425 2.50938C35.3786 2.52503 36.1296 2.53286 36.6459 2.66588Z" fill="#151515"/>
<path d="M13.3103 8.89456C12.7862 9.21539 12.7471 9.36406 12.7471 11.2421C12.7471 12.7836 12.7627 12.9479 12.9035 13.1827C13.2243 13.707 13.3729 13.7461 15.2503 13.7461C17.1278 13.7461 17.2764 13.707 17.5971 13.1827C17.738 12.9479 17.7536 12.7836 17.7536 11.2421C17.7536 9.70054 17.738 9.53621 17.5971 9.30146C17.2764 8.77718 17.1278 8.73806 15.2503 8.73806C13.7093 8.73806 13.545 8.75371 13.3103 8.89456Z" fill="#151515"/>
<path d="M20.2578 11.2421V12.4941H27.7676H35.2774V11.2421V9.99012H27.7676H20.2578V11.2421Z" fill="#151515"/>
<path d="M13.3103 17.6587C12.7862 17.9795 12.7471 18.1282 12.7471 20.0062C12.7471 21.5478 12.7627 21.7121 12.9035 21.9468C13.2243 22.4711 13.3729 22.5103 15.2503 22.5103C17.1278 22.5103 17.2764 22.4711 17.5971 21.9468C17.738 21.7121 17.7536 21.5478 17.7536 20.0062C17.7536 18.4647 17.738 18.3004 17.5971 18.0656C17.2764 17.5413 17.1278 17.5022 15.2503 17.5022C13.7093 17.5022 13.545 17.5179 13.3103 17.6587Z" fill="#151515"/>
<path d="M20.2578 20.0063V21.2583H27.7676H35.2774V20.0063V18.7543H27.7676H20.2578V20.0063Z" fill="#151515"/>
<path d="M13.3103 26.4229C12.7862 26.7437 12.7471 26.8924 12.7471 28.7704C12.7471 30.3119 12.7627 30.4763 12.9035 30.711C13.2243 31.2353 13.3729 31.2744 15.2503 31.2744C17.1278 31.2744 17.2764 31.2353 17.5971 30.711C17.738 30.4763 17.7536 30.3119 17.7536 28.7704C17.7536 27.2289 17.738 27.0645 17.5971 26.8298C17.2764 26.3055 17.1278 26.2664 15.2503 26.2664C13.7093 26.2664 13.545 26.282 13.3103 26.4229Z" fill="#151515"/>
<path d="M20.2578 28.7702V30.0222H27.7676H35.2774V28.7702V27.5182H27.7676H20.2578V28.7702Z" fill="#151515"/>
</g>
<defs>
<filter id="filter0_d_2_313" x="0" y="0" width="48" height="48" filterUnits="userSpaceOnUse" color-interpolation-filters="sRGB">
<feFlood flood-opacity="0" result="BackgroundImageFix"/>
<feColorMatrix in="SourceAlpha" type="matrix" values="0 0 0 0 0 0 0 0 0 0 0 0 0 0 0 0 0 0 127 0" result="hardAlpha"/>
<feOffset dy="4"/>
<feGaussianBlur stdDeviation="2"/>
<feComposite in2="hardAlpha" operator="out"/>
<feColorMatrix type="matrix" values="0 0 0 0 0 0 0 0 0 0 0 0 0 0 0 0 0 0 0.15 0"/>
<feBlend mode="normal" in2="BackgroundImageFix" result="effect1_dropShadow_2_313"/>
<feBlend mode="normal" in="SourceGraphic" in2="effect1_dropShadow_2_313" result="shape"/>
</filter>
</defs>
</svg>
