<svg width="43" height="42" viewBox="0 0 43 42" fill="none" xmlns="http://www.w3.org/2000/svg">
<g filter="url(#filter0_d_2_433)">
<path d="M10.539 0.0777232C7.5402 0.623129 5.10655 3.08411 4.58791 6.08384C4.50147 6.59599 4.48817 8.02602 4.50812 17.278C4.52806 29.1705 4.48152 28.1063 5.02011 29.4232C5.77813 31.279 7.24098 32.7422 9.10278 33.5005C10.4193 34.0392 9.44855 33.9993 21.5104 33.9993C33.5722 33.9993 32.6014 34.0392 33.918 33.5005C35.7798 32.7422 37.2426 31.279 38.0006 29.4166C38.5392 28.0996 38.4993 29.0707 38.4993 17.0053C38.4993 4.93982 38.5392 5.91091 38.0006 4.59395C37.2426 2.73159 35.7798 1.26831 33.9246 0.510057C32.6014 -0.0286975 33.6786 0.0178615 21.7099 0.00455893C12.9394 -0.00874366 10.9513 0.00455893 10.539 0.0777232ZM32.249 2.266C33.8315 2.67173 35.168 3.76254 35.8463 5.19922C36.4115 6.39645 36.3716 5.55174 36.3716 17.0053C36.3716 28.4588 36.4115 27.6141 35.8463 28.8113C35.3143 29.9354 34.4366 30.8134 33.3129 31.3455C32.116 31.9108 32.9605 31.8709 21.5104 31.8709C10.0603 31.8709 10.9047 31.9108 9.70787 31.3455C8.23837 30.6537 7.14124 29.2836 6.76888 27.6806C6.65584 27.1751 6.64919 26.623 6.64919 17.0053C6.64919 5.55174 6.60929 6.39645 7.17449 5.19922C7.70643 4.07515 8.59079 3.19053 9.70787 2.67173C10.3861 2.35247 10.7585 2.24605 11.4699 2.17288C11.7426 2.14628 16.4237 2.12632 21.8761 2.13297C31.1718 2.14628 31.8101 2.15293 32.249 2.266Z" fill="#151515"/>
<path d="M12.4143 7.56028C11.9688 7.83298 11.9355 7.95936 11.9355 9.55567C11.9355 10.866 11.9488 11.0056 12.0685 11.2052C12.3412 11.6508 12.4675 11.6841 14.0633 11.6841C15.6592 11.6841 15.7855 11.6508 16.0581 11.2052C16.1778 11.0056 16.1911 10.866 16.1911 9.55567C16.1911 8.24536 16.1778 8.10568 16.0581 7.90615C15.7855 7.46051 15.6592 7.42725 14.0633 7.42725C12.7534 7.42725 12.6138 7.44056 12.4143 7.56028Z" fill="#151515"/>
<path d="M18.3184 9.55542V10.6196H24.7017H31.085V9.55542V8.49121H24.7017H18.3184V9.55542Z" fill="#151515"/>
<path d="M12.4143 15.0095C11.9688 15.2822 11.9355 15.4086 11.9355 17.0049C11.9355 18.3152 11.9488 18.4549 12.0685 18.6544C12.3412 19.1 12.4675 19.1333 14.0633 19.1333C15.6592 19.1333 15.7855 19.1 16.0581 18.6544C16.1778 18.4549 16.1911 18.3152 16.1911 17.0049C16.1911 15.6946 16.1778 15.5549 16.0581 15.3554C15.7855 14.9097 15.6592 14.8765 14.0633 14.8765C12.7534 14.8765 12.6138 14.8898 12.4143 15.0095Z" fill="#151515"/>
<path d="M18.3184 17.0051V18.0693H24.7017H31.085V17.0051V15.9409H24.7017H18.3184V17.0051Z" fill="#151515"/>
<path d="M12.4143 22.4592C11.9688 22.7319 11.9355 22.8583 11.9355 24.4546C11.9355 25.7649 11.9488 25.9046 12.0685 26.1041C12.3412 26.5498 12.4675 26.583 14.0633 26.583C15.6592 26.583 15.7855 26.5498 16.0581 26.1041C16.1778 25.9046 16.1911 25.7649 16.1911 24.4546C16.1911 23.1443 16.1778 23.0046 16.0581 22.8051C15.7855 22.3594 15.6592 22.3262 14.0633 22.3262C12.7534 22.3262 12.6138 22.3395 12.4143 22.4592Z" fill="#151515"/>
<path d="M18.3184 24.4548V25.519H24.7017H31.085V24.4548V23.3906H24.7017H18.3184V24.4548Z" fill="#151515"/>
</g>
<defs>
<filter id="filter0_d_2_433" x="0.5" y="0" width="42" height="42" filterUnits="userSpaceOnUse" color-interpolation-filters="sRGB">
<feFlood flood-opacity="0" result="BackgroundImageFix"/>
<feColorMatrix in="SourceAlpha" type="matrix" values="0 0 0 0 0 0 0 0 0 0 0 0 0 0 0 0 0 0 127 0" result="hardAlpha"/>
<feOffset dy="4"/>
<feGaussianBlur stdDeviation="2"/>
<feComposite in2="hardAlpha" operator="out"/>
<feColorMatrix type="matrix" values="0 0 0 0 0 0 0 0 0 0 0 0 0 0 0 0 0 0 0.15 0"/>
<feBlend mode="normal" in2="BackgroundImageFix" result="effect1_dropShadow_2_433"/>
<feBlend mode="normal" in="SourceGraphic" in2="effect1_dropShadow_2_433" result="shape"/>
</filter>
</defs>
</svg>
